<svg width="84" height="84" xmlns="http://www.w3.org/2000/svg" xmlns:xlink="http://www.w3.org/1999/xlink" xml:space="preserve" overflow="hidden"><g transform="translate(-1197 -7)"><path d="M1253 33.25C1253 40.982 1246.73 47.25 1239 47.25 1231.27 47.25 1225 40.982 1225 33.25 1225 25.518 1231.27 19.25 1239 19.25 1246.73 19.25 1253 25.518 1253 33.25Z"/><path d="M1267 78.75 1267 64.75C1267 62.65 1265.95 60.55 1264.2 59.15 1260.35 56 1255.45 53.9 1250.55 52.5 1247.05 51.45 1243.2 50.75 1239 50.75 1235.15 50.75 1231.3 51.45 1227.45 52.5 1222.55 53.9 1217.65 56.35 1213.8 59.15 1212.05 60.55 1211 62.65 1211 64.75L1211 78.75 1267 78.75Z"/></g></svg>